<svg class="svg-icon" style="width: 1em; height: 1em;vertical-align: middle;fill: currentColor;overflow: hidden;" viewBox="0 0 1024 1024" version="1.1" xmlns="http://www.w3.org/2000/svg"><path d="M832 960H192a85.333333 85.333333 0 0 1-85.333333-85.333333V213.333333a85.333333 85.333333 0 0 1 85.333333-85.333333h64V96a32 32 0 0 1 64 0V128h85.333333V96a32 32 0 0 1 64 0V128h85.333334V96a32 32 0 0 1 64 0V128h85.333333V96a32 32 0 0 1 64 0V128h64a85.333333 85.333333 0 0 1 85.333333 85.333333v661.333334a85.333333 85.333333 0 0 1-85.333333 85.333333z m21.333333-725.333333a42.666667 42.666667 0 0 0-42.666666-42.666667h-42.666667v32a32 32 0 0 1-64 0V192h-85.333333v32a32 32 0 0 1-64 0V192h-85.333334v32a32 32 0 0 1-64 0V192h-85.333333v32a32 32 0 0 1-64 0V192h-42.666667a42.666667 42.666667 0 0 0-42.666666 42.666667v128h682.666666v-128zM170.666667 426.666667v426.666666a42.666667 42.666667 0 0 0 42.666666 42.666667h597.333334a42.666667 42.666667 0 0 0 42.666666-42.666667V426.666667H170.666667z" fill="#5C8EF3" /><path d="M698.474667 594.282667l-196.096 196.117333a32 32 0 0 1-45.248 0s0-0.149333-0.149334-0.213333h-0.149333l-105.6-105.6a32 32 0 0 1 45.269333-45.269334l83.2 83.2 173.461334-173.461333a32 32 0 0 1 45.312 45.226667z" fill="#EB9E52" /></svg>